<?xml version="1.0" encoding="UTF-8" standalone="no"?><!DOCTYPE svg PUBLIC "-//W3C//DTD SVG 1.1//EN" "http://www.w3.org/Graphics/SVG/1.1/DTD/svg11.dtd"><svg width="100%" height="100%" viewBox="0 0 1234 380" version="1.1" xmlns="http://www.w3.org/2000/svg" xmlns:xlink="http://www.w3.org/1999/xlink" xml:space="preserve" xmlns:serif="http://www.serif.com/" style="fill-rule:evenodd;clip-rule:evenodd;stroke-linejoin:round;stroke-miterlimit:2;"><g id="Logo"><g><g id="New--Learning" serif:id="New  Learning"><path d="M454.217,309.636l65.859,0l-0,24.917l-96.876,-0l-0,-150.535l31.017,0l-0,125.618Z" style="fill:#fff;fill-rule:nonzero;"/><path d="M587.382,336.621c-16.404,-0 -29.759,-5.032 -40.063,-15.095c-10.305,-10.063 -15.457,-23.469 -15.457,-40.219l-0,-2.894c-0,-11.235 2.171,-21.281 6.514,-30.138c4.342,-8.857 10.494,-15.681 18.454,-20.471c7.961,-4.791 17.042,-7.186 27.244,-7.186c15.301,-0 27.346,4.825 36.134,14.474c8.788,9.65 13.182,23.332 13.182,41.046l0,12.2l-71.235,-0c0.965,7.306 3.877,13.165 8.736,17.576c4.86,4.411 11.011,6.617 18.455,6.617c11.511,0 20.506,-4.17 26.985,-12.51l14.681,16.439c-4.48,6.341 -10.545,11.287 -18.196,14.836c-7.651,3.55 -16.129,5.325 -25.434,5.325Zm-3.412,-91.81c-5.927,0 -10.735,1.999 -14.423,5.997c-3.687,3.997 -6.048,9.718 -7.082,17.162l41.563,0l-0,-2.378c-0.138,-6.617 -1.93,-11.734 -5.377,-15.353c-3.446,-3.619 -8.34,-5.428 -14.681,-5.428Z" style="fill:#fff;fill-rule:nonzero;"/><path d="M715.171,334.553c-1.378,-2.688 -2.378,-6.031 -2.998,-10.029c-7.237,8.065 -16.646,12.097 -28.225,12.097c-10.96,-0 -20.041,-3.171 -27.243,-9.512c-7.203,-6.341 -10.805,-14.337 -10.805,-23.986c0,-11.856 4.394,-20.954 13.182,-27.295c8.789,-6.341 21.488,-9.546 38.099,-9.615l13.751,-0l0,-6.41c0,-5.17 -1.327,-9.306 -3.98,-12.407c-2.654,-3.102 -6.841,-4.653 -12.562,-4.653c-5.032,0 -8.978,1.207 -11.838,3.619c-2.861,2.412 -4.291,5.721 -4.291,9.925l-29.879,0c-0,-6.479 1.999,-12.475 5.996,-17.989c3.998,-5.515 9.65,-9.84 16.956,-12.976c7.306,-3.136 15.509,-4.704 24.607,-4.704c13.785,-0 24.727,3.464 32.826,10.391c8.099,6.927 12.148,16.663 12.148,29.207l0,48.49c0.069,10.614 1.551,18.644 4.446,24.089l-0,1.758l-30.19,-0Zm-24.71,-20.781c4.411,-0 8.478,-0.982 12.2,-2.947c3.722,-1.964 6.479,-4.601 8.271,-7.909l0,-19.231l-11.166,0c-14.957,0 -22.918,5.17 -23.883,15.509l-0.103,1.757c-0,3.722 1.309,6.79 3.929,9.202c2.619,2.413 6.203,3.619 10.752,3.619Z" style="fill:#fff;fill-rule:nonzero;"/><path d="M826.728,250.704c-4.066,-0.551 -7.651,-0.827 -10.752,-0.827c-11.304,0 -18.714,3.826 -22.229,11.476l0,73.2l-29.879,-0l-0,-111.867l28.225,-0l0.827,13.337c5.996,-10.27 14.302,-15.405 24.917,-15.405c3.308,-0 6.41,0.448 9.305,1.344l-0.414,28.742Z" style="fill:#fff;fill-rule:nonzero;"/><path d="M868.601,222.686l0.93,12.923c7.996,-9.994 18.714,-14.991 32.154,-14.991c11.856,-0 20.678,3.481 26.468,10.442c5.79,6.962 8.754,17.37 8.892,31.224l-0,72.269l-29.88,-0l0,-71.545c0,-6.342 -1.378,-10.942 -4.136,-13.803c-2.757,-2.86 -7.34,-4.291 -13.75,-4.291c-8.409,0 -14.716,3.585 -18.921,10.753l0,78.886l-29.879,-0l-0,-111.867l28.122,-0Z" style="fill:#fff;fill-rule:nonzero;"/><path d="M991.221,334.553l-29.983,-0l-0,-111.867l29.983,-0l-0,111.867Zm-31.741,-140.816c0,-4.48 1.499,-8.168 4.497,-11.063c2.999,-2.895 7.083,-4.342 12.252,-4.342c5.101,-0 9.167,1.447 12.2,4.342c3.033,2.895 4.549,6.583 4.549,11.063c0,4.549 -1.533,8.271 -4.601,11.166c-3.067,2.895 -7.116,4.342 -12.148,4.342c-5.032,0 -9.081,-1.447 -12.148,-4.342c-3.067,-2.895 -4.601,-6.617 -4.601,-11.166Z" style="fill:#fff;fill-rule:nonzero;"/><path d="M1043.33,222.686l0.93,12.923c7.996,-9.994 18.714,-14.991 32.154,-14.991c11.856,-0 20.678,3.481 26.468,10.442c5.79,6.962 8.754,17.37 8.891,31.224l0,72.269l-29.879,-0l-0,-71.545c-0,-6.342 -1.379,-10.942 -4.136,-13.803c-2.757,-2.86 -7.34,-4.291 -13.75,-4.291c-8.409,0 -14.716,3.585 -18.921,10.753l0,78.886l-29.879,-0l-0,-111.867l28.122,-0Z" style="fill:#fff;fill-rule:nonzero;"/><path d="M1130.07,277.792c0,-17.162 4.084,-30.982 12.252,-41.459c8.168,-10.477 19.179,-15.715 33.033,-15.715c12.269,-0 21.815,4.204 28.639,12.613l1.24,-10.545l27.088,-0l0,108.145c0,9.787 -2.223,18.3 -6.668,25.537c-4.446,7.237 -10.701,12.751 -18.765,16.542c-8.065,3.791 -17.508,5.687 -28.329,5.687c-8.202,-0 -16.198,-1.637 -23.986,-4.911c-7.789,-3.274 -13.682,-7.496 -17.68,-12.665l13.234,-18.197c7.444,8.34 16.473,12.51 27.088,12.51c7.926,0 14.095,-2.119 18.506,-6.358c4.412,-4.239 6.617,-10.253 6.617,-18.042l0,-5.996c-6.892,7.788 -15.956,11.683 -27.191,11.683c-13.441,-0 -24.314,-5.256 -32.619,-15.767c-8.306,-10.511 -12.459,-24.452 -12.459,-41.821l0,-1.241Zm29.88,2.171c-0,10.133 2.033,18.076 6.1,23.832c4.066,5.755 9.649,8.633 16.749,8.633c9.098,-0 15.612,-3.412 19.54,-10.236l0,-47.042c-3.997,-6.824 -10.442,-10.236 -19.333,-10.236c-7.169,0 -12.803,2.93 -16.905,8.789c-4.101,5.858 -6.151,14.612 -6.151,26.26Z" style="fill:#fff;fill-rule:nonzero;"/></g><g id="New--Learning1" serif:id="New  Learning"><path d="M535.274,154.46l-12.717,0l-86.537,-128.823l0,128.823l-12.82,0l-0,-150.534l12.82,-0l86.64,128.926l0,-128.926l12.614,-0l-0,150.534Z" style="fill:#fff;fill-rule:nonzero;"/><path d="M613.953,156.528c-9.512,0 -18.11,-2.343 -25.796,-7.03c-7.685,-4.687 -13.664,-11.218 -17.938,-19.592c-4.273,-8.375 -6.41,-17.766 -6.41,-28.174l0,-4.446c0,-10.752 2.085,-20.436 6.255,-29.052c4.17,-8.616 9.977,-15.388 17.421,-20.316c7.444,-4.928 15.509,-7.393 24.194,-7.393c13.578,0 24.348,4.636 32.309,13.906c7.961,9.271 11.941,21.936 11.941,37.996l0,6.927l-79.816,-0l-0,2.378c-0,12.682 3.635,23.245 10.907,31.689c7.272,8.443 16.422,12.665 27.45,12.665c6.617,-0 12.458,-1.206 17.524,-3.619c5.067,-2.412 9.667,-6.272 13.803,-11.579l7.754,5.893c-9.098,13.165 -22.297,19.747 -39.598,19.747Zm-2.274,-105.457c-9.306,0 -17.146,3.412 -23.522,10.236c-6.375,6.823 -10.252,15.991 -11.631,27.501l67.1,0l-0,-1.344c-0.345,-10.752 -3.412,-19.506 -9.202,-26.261c-5.79,-6.754 -13.372,-10.132 -22.745,-10.132Z" style="fill:#fff;fill-rule:nonzero;"/><path d="M706.797,128.717l1.861,9.615l2.481,-10.132l26.881,-85.607l10.546,0l26.571,84.883l2.895,11.786l2.378,-10.856l22.952,-85.813l12.82,0l-32.567,111.867l-10.546,0l-28.742,-88.708l-1.344,-6.1l-1.344,6.204l-28.225,88.604l-10.546,0l-32.464,-111.867l12.716,0l23.677,86.124Z" style="fill:#fff;fill-rule:nonzero;"/></g></g><g id="Shape"><g><path d="M178.494,194.031l0.002,77.066l-111.687,64.481l-0.003,-77.059l111.688,-64.488Z" style="fill:#7fb700;"/><path d="M178.494,194.031l-66.74,-38.535l-111.685,64.484l66.733,38.532l111.692,-64.481Z" style="fill:#0b4f6b;"/></g><g><path d="M191.376,171.69l-66.742,-38.532l0.002,-128.964l66.736,38.527l0.004,128.969Z" style="fill:#533971;"/><path d="M191.376,171.69l66.743,-38.531l-0.002,-128.965l-66.736,38.528l-0.005,128.968Z" style="fill:#f5511d;"/></g><g><path d="M204.259,194.031l66.74,-38.535l111.686,64.484l-66.734,38.532l-111.692,-64.481Z" style="fill:#ffb300;"/><path d="M204.259,194.031l-0.002,77.066l111.687,64.481l0.003,-77.059l-111.688,-64.488Z" style="fill:#00a5ed;"/></g></g></g></svg>
