<?xml version="1.0" encoding="UTF-8" standalone="no"?><!DOCTYPE svg PUBLIC "-//W3C//DTD SVG 1.1//EN" "http://www.w3.org/Graphics/SVG/1.1/DTD/svg11.dtd"><svg width="100%" height="100%" viewBox="0 0 384 334" version="1.1" xmlns="http://www.w3.org/2000/svg" xmlns:xlink="http://www.w3.org/1999/xlink" xml:space="preserve" xmlns:serif="http://www.serif.com/" style="fill-rule:evenodd;clip-rule:evenodd;stroke-linejoin:round;stroke-miterlimit:2;"><g id="Logo"><g id="Shape"><g><path d="M178.778,190.632l0.002,77.067l-111.687,64.48l-0.003,-77.059l111.688,-64.488Z" style="fill:#7fb700;"/><path d="M178.778,190.632l-66.74,-38.535l-111.686,64.484l66.734,38.532l111.692,-64.481Z" style="fill:#0b4f6b;"/></g><g><path d="M191.66,168.291l-66.743,-38.532l0.003,-128.964l66.736,38.527l0.004,128.969Z" style="fill:#533971;"/><path d="M191.66,168.291l66.743,-38.531l-0.003,-128.965l-66.736,38.528l-0.004,128.968Z" style="fill:#f5511d;"/></g><g><path d="M204.543,190.632l66.74,-38.535l111.685,64.484l-66.733,38.532l-111.692,-64.481Z" style="fill:#ffb300;"/><path d="M204.543,190.632l-0.003,77.067l111.688,64.48l0.002,-77.059l-111.687,-64.488Z" style="fill:#00a5ed;"/></g></g></g></svg>