<?xml version="1.0" encoding="UTF-8" standalone="no"?>
<!DOCTYPE svg PUBLIC "-//W3C//DTD SVG 1.1//EN" "http://www.w3.org/Graphics/SVG/1.1/DTD/svg11.dtd">
<svg width="100%" height="100%" viewBox="0 0 3200 538" version="1.1" xmlns="http://www.w3.org/2000/svg" xmlns:xlink="http://www.w3.org/1999/xlink" xml:space="preserve" xmlns:serif="http://www.serif.com/" style="fill-rule:evenodd;clip-rule:evenodd;stroke-linejoin:round;stroke-miterlimit:2;">
    <g transform="matrix(1.58288,0,0,1.09868,0,-2.92219)">
        <path d="M0,294L288,196L576,343L864,343L1152,147L1440,49L1728,392L2016,98L2304,98L2592,392L2880,49L3168,343L3456,392L3744,196L4032,343L4320,245L4608,392L4896,343L5184,441L5472,245L5760,245L6048,49L6336,441L6624,196L6912,441L6912,490L0,490L0,294Z" style="fill:url(#_Linear1);fill-rule:nonzero;"/>
    </g>
    <g transform="matrix(1.58288,0,0,1.09796,-4.54747e-13,0)">
        <path d="M0,294L288,441L576,392L864,294L1152,343L1440,98L1728,147L2016,0L2304,294L2592,294L3168,196L3456,49L3744,343L4032,245L4320,98L4608,294L4896,147L5184,441L5472,294L5760,0L6048,294L6336,49L6624,392L6912,441L6912,490L0,490L0,294Z" style="fill:url(#_Linear2);fill-rule:nonzero;"/>
    </g>
    <defs>
        <linearGradient id="_Linear1" x1="0" y1="0" x2="1" y2="0" gradientUnits="userSpaceOnUse" gradientTransform="matrix(2.70035e-14,-441,441,2.70035e-14,0,490)"><stop offset="0" style="stop-color:white;stop-opacity:0.07"/><stop offset="1" style="stop-color:white;stop-opacity:0.07"/></linearGradient>
        <linearGradient id="_Linear2" x1="0" y1="0" x2="1" y2="0" gradientUnits="userSpaceOnUse" gradientTransform="matrix(3.00038e-14,-490,490,3.00038e-14,0,490)"><stop offset="0" style="stop-color:white;stop-opacity:0.06"/><stop offset="1" style="stop-color:white;stop-opacity:0.06"/></linearGradient>
    </defs>
</svg>
