<?xml version="1.0" encoding="UTF-8" standalone="no"?>
<!DOCTYPE svg PUBLIC "-//W3C//DTD SVG 1.1//EN" "http://www.w3.org/Graphics/SVG/1.1/DTD/svg11.dtd">
<svg width="100%" height="100%" viewBox="0 0 3200 210" version="1.1" xmlns="http://www.w3.org/2000/svg" xmlns:xlink="http://www.w3.org/1999/xlink" xml:space="preserve" xmlns:serif="http://www.serif.com/" style="fill-rule:evenodd;clip-rule:evenodd;stroke-linejoin:round;stroke-miterlimit:2;">
    <g transform="matrix(1,0,0,1,-670.894,-1854)">
        <g transform="matrix(1,0,0,1,-2051.98,1854)">
            <path d="M0,105L360,105L720,189L1080,147L1440,21L1800,21L2160,189L2520,147L2880,84L3240,147L3600,63L3960,84L4320,42L4680,84L5040,21L5400,0L5760,126L6120,168L6480,105L6840,147L7200,21L7560,105L7920,147L8280,42L8640,21L8640,210L0,210L0,105Z" style="fill:url(#_Linear1);fill-rule:nonzero;"/>
        </g>
        <g transform="matrix(1,0,0,1,-2051.98,1854)">
            <path d="M0,105L360,147L1080,21L1440,42L1800,147L2160,189L2520,21L2880,147L3240,189L3600,21L3960,105L4320,147L4680,21L5040,147L5400,147L5760,21L6120,0L6480,126L6840,105L7200,0L7920,126L8640,42L8640,210L0,210L0,105Z" style="fill:url(#_Linear2);fill-rule:nonzero;"/>
        </g>
    </g>
    <defs>
        <linearGradient id="_Linear1" x1="0" y1="0" x2="1" y2="0" gradientUnits="userSpaceOnUse" gradientTransform="matrix(1.28588e-14,-210,210,1.28588e-14,0,210)"><stop offset="0" style="stop-color:white;stop-opacity:0.07"/><stop offset="1" style="stop-color:white;stop-opacity:0.07"/></linearGradient>
        <linearGradient id="_Linear2" x1="0" y1="0" x2="1" y2="0" gradientUnits="userSpaceOnUse" gradientTransform="matrix(1.28588e-14,-210,210,1.28588e-14,0,210)"><stop offset="0" style="stop-color:white;stop-opacity:0.06"/><stop offset="1" style="stop-color:white;stop-opacity:0.06"/></linearGradient>
    </defs>
</svg>
