<?xml version="1.0" encoding="utf-8"?>
<!-- Generator: Adobe Illustrator 15.0.0, SVG Export Plug-In . SVG Version: 6.00 Build 0)  -->
<!DOCTYPE svg PUBLIC "-//W3C//DTD SVG 1.1//EN" "http://www.w3.org/Graphics/SVG/1.1/DTD/svg11.dtd">
<svg version="1.1" id="Warstwa_1" xmlns="http://www.w3.org/2000/svg" xmlns:xlink="http://www.w3.org/1999/xlink" x="0px" y="0px"
	 width="36px" height="14px" viewBox="0 0 36 14" enable-background="new 0 0 36 14" xml:space="preserve">
<path fill="#7FB61B" d="M33.625,11c0,1.656-1.343,3-3,3h-25c-1.657,0-3-1.344-3-3V6c0-1.657,1.343-3,3-3h25c1.657,0,3,1.343,3,3V11z
	"/>
<g>
	<path fill="#FFFFFF" d="M11.204,9.052H8.343v3.003H7.107V4.945h4.517v0.996H8.343v2.114h2.861V9.052z"/>
	<path fill="#FFFFFF" d="M15.213,9.32h-1.377v2.734h-1.235V4.945h2.5c0.82,0,1.453,0.184,1.899,0.552s0.669,0.901,0.669,1.598
		c0,0.476-0.114,0.874-0.345,1.195c-0.229,0.321-0.549,0.567-0.959,0.74l1.597,2.96v0.063h-1.323L15.213,9.32z M13.836,8.324h1.27
		c0.417,0,0.742-0.105,0.977-0.315s0.352-0.497,0.352-0.862c0-0.381-0.108-0.675-0.324-0.884c-0.217-0.208-0.54-0.316-0.97-0.322
		h-1.304V8.324z"/>
	<path fill="#FFFFFF" d="M22.996,8.881h-2.92v2.178h3.413v0.996h-4.648V4.945h4.614v0.996h-3.379v1.963h2.92V8.881z"/>
	<path fill="#FFFFFF" d="M28.65,8.881h-2.92v2.178h3.413v0.996h-4.648V4.945h4.614v0.996H25.73v1.963h2.92V8.881z"/>
</g>
</svg>
