<?xml version="1.0" encoding="utf-8"?>
<!-- Generator: Adobe Illustrator 15.0.0, SVG Export Plug-In . SVG Version: 6.00 Build 0)  -->
<!DOCTYPE svg PUBLIC "-//W3C//DTD SVG 1.1//EN" "http://www.w3.org/Graphics/SVG/1.1/DTD/svg11.dtd">
<svg version="1.1" id="Warstwa_1" xmlns="http://www.w3.org/2000/svg" xmlns:xlink="http://www.w3.org/1999/xlink" x="0px" y="0px"
	 width="36px" height="14px" viewBox="0 0 36 14" enable-background="new 0 0 36 14" xml:space="preserve">
<path fill="#E85328" d="M33.625,11c0,1.656-1.343,3-3,3h-25c-1.657,0-3-1.344-3-3V6c0-1.657,1.343-3,3-3h25c1.657,0,3,1.343,3,3V11z
	"/>
<g>
	<path fill="#FFFFFF" d="M14.404,12.055h-1.23V8.9H9.995v3.154H8.76V4.945h1.235v2.959h3.179V4.945h1.23V12.055z"/>
	<path fill="#FFFFFF" d="M21.538,8.686c0,0.697-0.12,1.308-0.361,1.833s-0.585,0.929-1.032,1.211
		c-0.448,0.282-0.963,0.422-1.546,0.422c-0.576,0-1.09-0.141-1.54-0.422c-0.451-0.282-0.8-0.683-1.045-1.204
		c-0.246-0.521-0.371-1.122-0.374-1.802v-0.4c0-0.693,0.123-1.305,0.368-1.836c0.246-0.531,0.593-0.937,1.041-1.218
		c0.447-0.282,0.961-0.422,1.54-0.422s1.093,0.139,1.54,0.417c0.448,0.278,0.794,0.679,1.038,1.201s0.368,1.13,0.371,1.824V8.686z
		 M20.303,8.314c0-0.788-0.148-1.392-0.447-1.812c-0.297-0.42-0.72-0.63-1.267-0.63c-0.534,0-0.951,0.209-1.253,0.627
		c-0.301,0.418-0.454,1.01-0.461,1.775v0.41c0,0.781,0.152,1.385,0.457,1.812c0.304,0.426,0.727,0.64,1.267,0.64
		c0.547,0,0.968-0.208,1.263-0.625c0.294-0.417,0.441-1.025,0.441-1.826V8.314z"/>
	<path fill="#FFFFFF" d="M27.49,5.941h-2.217v6.113h-1.226V5.941h-2.197V4.945h5.64V5.941z"/>
</g>
</svg>
