<?xml version="1.0" encoding="utf-8"?>
<!-- Generator: Adobe Illustrator 15.0.0, SVG Export Plug-In . SVG Version: 6.00 Build 0)  -->
<!DOCTYPE svg PUBLIC "-//W3C//DTD SVG 1.1//EN" "http://www.w3.org/Graphics/SVG/1.1/DTD/svg11.dtd">
<svg version="1.1" id="Warstwa_1" xmlns="http://www.w3.org/2000/svg" xmlns:xlink="http://www.w3.org/1999/xlink" x="0px" y="0px"
	 width="36px" height="14px" viewBox="0 0 36 14" enable-background="new 0 0 36 14" xml:space="preserve">
<path fill="#7FB61B" d="M33.625,11c0,1.656-1.343,3-3,3h-25c-1.657,0-3-1.344-3-3V6c0-1.657,1.343-3,3-3h25c1.657,0,3,1.343,3,3V11z
	"/>
<g>
	<path fill="#FFFFFF" d="M13.314,12.094H12.08L8.91,7.05v5.044H7.676V4.984H8.91l3.18,5.063V4.984h1.225V12.094z"/>
	<path fill="#FFFFFF" d="M18.93,8.92h-2.92v2.178h3.414v0.996h-4.648V4.984h4.613V5.98H16.01v1.963h2.92V8.92z"/>
	<path fill="#FFFFFF" d="M26.006,10.336L27.1,4.984h1.225l-1.641,7.109h-1.182l-1.352-5.19l-1.383,5.19h-1.186l-1.641-7.109h1.225
		l1.104,5.342l1.357-5.342h1.035L26.006,10.336z"/>
</g>
</svg>
