<?xml version="1.0" encoding="utf-8"?>
<!-- Generator: Adobe Illustrator 15.0.0, SVG Export Plug-In . SVG Version: 6.00 Build 0)  -->
<!DOCTYPE svg PUBLIC "-//W3C//DTD SVG 1.1//EN" "http://www.w3.org/Graphics/SVG/1.1/DTD/svg11.dtd">
<svg version="1.1" id="Warstwa_1" xmlns="http://www.w3.org/2000/svg" xmlns:xlink="http://www.w3.org/1999/xlink" x="0px" y="0px"
	 width="36px" height="14px" viewBox="0 0 36 14" enable-background="new 0 0 36 14" xml:space="preserve">
<path fill="#36A1D6" d="M33.625,11c0,1.656-1.343,3-3,3h-25c-1.657,0-3-1.344-3-3V6c0-1.657,1.343-3,3-3h25c1.657,0,3,1.343,3,3V11z
	"/>
<g>
	<path fill="#FFFFFF" d="M14.438,5.941h-2.217v6.113h-1.226V5.941H8.799V4.945h5.64V5.941z"/>
	<path fill="#FFFFFF" d="M20.908,8.686c0,0.697-0.12,1.308-0.361,1.833s-0.585,0.929-1.032,1.211
		c-0.448,0.282-0.963,0.422-1.546,0.422c-0.576,0-1.09-0.141-1.54-0.422c-0.451-0.282-0.8-0.683-1.045-1.204
		s-0.37-1.122-0.374-1.802v-0.4c0-0.693,0.123-1.305,0.369-1.836s0.592-0.937,1.041-1.218c0.447-0.282,0.961-0.422,1.54-0.422
		s1.093,0.139,1.54,0.417c0.448,0.278,0.794,0.679,1.038,1.201s0.368,1.13,0.371,1.824V8.686z M19.673,8.314
		c0-0.788-0.148-1.392-0.447-1.812c-0.297-0.42-0.72-0.63-1.267-0.63c-0.534,0-0.951,0.209-1.253,0.627
		c-0.301,0.418-0.454,1.01-0.461,1.775v0.41c0,0.781,0.152,1.385,0.457,1.812c0.304,0.426,0.727,0.64,1.267,0.64
		c0.547,0,0.968-0.208,1.263-0.625c0.294-0.417,0.441-1.025,0.441-1.826V8.314z"/>
	<path fill="#FFFFFF" d="M23.374,9.418v2.637h-1.235V4.945h2.72c0.794,0,1.425,0.207,1.893,0.621c0.467,0.414,0.7,0.961,0.7,1.643
		c0,0.697-0.229,1.24-0.687,1.628c-0.457,0.388-1.098,0.582-1.921,0.582H23.374z M23.374,8.422h1.484
		c0.439,0,0.774-0.104,1.006-0.31s0.347-0.505,0.347-0.896c0-0.384-0.117-0.691-0.352-0.92s-0.557-0.348-0.967-0.354h-1.519V8.422z"
		/>
</g>
</svg>
